<svg width="32" height="32" viewBox="0 0 32 32" fill="none" xmlns="http://www.w3.org/2000/svg">
    <circle cx="16" cy="16" r="16" fill="#2775CA"/>
    <path d="M20.0772 14.6354C20.0772 12.9124 18.8829 12.1466 16.4943 11.8837C14.7713 11.6733 14.4559 11.2003 14.4559 10.4345C14.4559 9.66873 15.0865 9.19574 16.2807 9.19574C17.3173 9.19574 17.948 9.56134 18.2633 10.4869C18.3157 10.6449 18.4737 10.7505 18.6317 10.7505H19.7207C19.9311 10.7505 20.0891 10.5925 20.0891 10.3821V10.3297C19.7738 9.03814 18.6841 8.09277 17.2323 7.93477V6.47256C17.2323 6.26216 17.0743 6.10416 16.8115 6.05176H15.7749C15.5645 6.05176 15.4065 6.20976 15.3541 6.47256V7.88237C13.4207 8.09277 12.2265 9.24814 12.2265 10.6973C12.2265 12.3679 13.3683 13.1861 15.7573 13.4489C17.4803 13.7119 17.8481 14.1325 17.8481 14.9507C17.8481 15.8437 17.1127 16.4219 15.8661 16.4219C14.2479 16.4219 13.7225 15.7609 13.5121 14.8679C13.4597 14.6575 13.3017 14.5519 13.1437 14.5519H11.9495C11.7391 14.5519 11.5811 14.7099 11.5811 14.9203V14.9727C11.8441 16.4219 12.8283 17.5637 15.3541 17.8267V19.2889C15.3541 19.4993 15.5121 19.6573 15.7749 19.7097H16.8115C17.0219 19.7097 17.1799 19.5517 17.2323 19.2889V17.8791C19.1657 17.6687 20.0772 16.4219 20.0772 14.6354Z" fill="white"/>
    <path d="M16 4C9.37258 4 4 9.37258 4 16C4 22.6274 9.37258 28 16 28C22.6274 28 28 22.6274 28 16C28 9.37258 22.6274 4 16 4ZM16 26C10.4772 26 6 21.5228 6 16C6 10.4772 10.4772 6 16 6C21.5228 6 26 10.4772 26 16C26 21.5228 21.5228 26 16 26Z" fill="white"/>
</svg> 